<svg width="200" height="200" viewBox="0 0 200 200" fill="none" xmlns="http://www.w3.org/2000/svg">
<rect width="200" height="200" rx="16" fill="white"/>
<rect width="200" height="200" rx="16" fill="url(#paint0_linear_11_456)"/>
<g filter="url(#filter0_dd_11_456)">
<path d="M75.45 84.7L98.95 71.1C99.55 70.8 100.25 70.8 100.85 71.1L124.45 84.7C125.05 85 125.45 85.7 125.45 86.3V113.5C125.45 114.2 125.05 114.8 124.45 115.2L100.95 128.8C100.35 129.1 99.65 129.1 99.05 128.8L75.45 115.2C74.85 114.9 74.45 114.2 74.45 113.5V86.3C74.45 85.7 74.85 85 75.45 84.7Z" fill="#8080F2"/>
<path d="M161.15 97.1L133.05 48.1C132.05 46.3 130.15 45 128.05 45H71.85C69.85 45 67.95 46.3 66.85 48.1L38.75 97C37.75 98.8 37.75 101 38.75 102.8L66.85 151.4C67.85 153.2 69.75 154.1 71.85 154.1H128.15C130.15 154.1 132.05 153.2 133.15 151.5L161.25 102.9C162.25 100.9 162.25 98.8 161.15 97.1ZM137.85 120.6C137.85 121.3 137.45 122 136.75 122.3L100.95 143C100.35 143.4 99.55 143.4 98.95 143L63.05 122.4C62.45 122 61.95 121.4 61.95 120.7V79.2C61.95 78.5 62.35 77.8 63.05 77.5L98.95 56.8C99.55 56.4 100.35 56.4 100.95 56.8L136.85 77.5C137.45 77.9 137.95 78.5 137.95 79.2V120.6H137.85Z" fill="#4B32C3"/>
</g>
<defs>
<filter id="filter0_dd_11_456" x="36" y="43" width="131.988" height="117.1" filterUnits="userSpaceOnUse" color-interpolation-filters="sRGB">
<feFlood flood-opacity="0" result="BackgroundImageFix"/>
<feColorMatrix in="SourceAlpha" type="matrix" values="0 0 0 0 0 0 0 0 0 0 0 0 0 0 0 0 0 0 127 0" result="hardAlpha"/>
<feOffset dx="2" dy="2"/>
<feGaussianBlur stdDeviation="2"/>
<feComposite in2="hardAlpha" operator="out"/>
<feColorMatrix type="matrix" values="0 0 0 0 0 0 0 0 0 0 0 0 0 0 0 0 0 0 0.25 0"/>
<feBlend mode="normal" in2="BackgroundImageFix" result="effect1_dropShadow_11_456"/>
<feColorMatrix in="SourceAlpha" type="matrix" values="0 0 0 0 0 0 0 0 0 0 0 0 0 0 0 0 0 0 127 0" result="hardAlpha"/>
<feOffset dx="2" dy="2"/>
<feGaussianBlur stdDeviation="0.5"/>
<feComposite in2="hardAlpha" operator="out"/>
<feColorMatrix type="matrix" values="0 0 0 0 0 0 0 0 0 0 0 0 0 0 0 0 0 0 0.1 0"/>
<feBlend mode="normal" in2="effect1_dropShadow_11_456" result="effect2_dropShadow_11_456"/>
<feBlend mode="normal" in="SourceGraphic" in2="effect2_dropShadow_11_456" result="shape"/>
</filter>
<linearGradient id="paint0_linear_11_456" x1="100" y1="200" x2="100" y2="-7.51112e-07" gradientUnits="userSpaceOnUse">
<stop stop-opacity="0.51"/>
<stop offset="0.463542" stop-opacity="0"/>
</linearGradient>
</defs>
</svg>
