<svg width="200" height="200" viewBox="0 0 200 200" fill="none" xmlns="http://www.w3.org/2000/svg">
<rect width="200" height="200" rx="16" fill="#E434AA"/>
<rect width="200" height="200" rx="16" fill="url(#paint0_linear_3_128)"/>
<g filter="url(#filter0_dd_3_128)">
<path d="M56.7231 131.459L52.3181 128.915L101.396 43.9166L105.798 46.46L56.7231 131.459Z" fill="white"/>
<path d="M51.3069 122.126H149.458V127.21H51.3069V122.126Z" fill="white"/>
<path d="M102.345 153.327L53.2528 124.984L55.7962 120.577L104.889 148.924L102.345 153.327ZM144.992 79.4525L95.9 51.1054L98.4434 46.7032L147.536 75.0456L144.992 79.4525Z" fill="white"/>
<path d="M55.8077 79.4334L53.2633 75.0274L102.36 46.6841L104.903 51.0872L55.8077 79.4334Z" fill="white"/>
<path d="M144.087 131.459L95.0131 46.46L99.4162 43.9166L148.494 128.915L144.087 131.459ZM55.2004 71.6528H60.2882V128.347H55.2014L55.2004 71.6528Z" fill="white"/>
<path d="M140.511 71.6528H145.598V128.347H140.511V71.6528Z" fill="white"/>
<path d="M101.481 151.176L99.2592 147.326L141.955 122.672L144.177 126.522L101.481 151.176Z" fill="white"/>
<path d="M152.339 130C149.399 135.117 142.841 136.864 137.724 133.924C132.607 130.981 130.86 124.423 133.8 119.305C136.744 114.188 143.302 112.441 148.419 115.382C153.566 118.355 155.313 124.883 152.339 130ZM66.9695 80.6946C64.0258 85.8121 57.4681 87.5587 52.3507 84.6179C47.2332 81.6742 45.4865 75.1175 48.4273 70C51.371 64.8825 57.9278 63.1359 63.0453 66.0757C68.1627 69.0501 69.9094 75.5771 66.9695 80.6946ZM48.4609 130C45.5162 124.883 47.2638 118.355 52.3804 115.381C57.4978 112.441 64.0249 114.188 66.9992 119.305C69.9391 124.423 68.1924 130.95 63.0749 133.924C57.9278 136.864 51.4007 135.117 48.4609 130ZM133.83 80.6946C130.89 75.5771 132.637 69.0501 137.754 66.0757C142.872 63.1359 149.399 64.8825 152.372 70C155.312 75.1175 153.566 81.6445 148.449 84.6189C143.331 87.5587 136.774 85.8121 133.83 80.6946ZM100.4 160C98.9949 160.001 97.6037 159.725 96.3056 159.188C95.0075 158.651 93.828 157.864 92.8347 156.87C91.8413 155.877 91.0536 154.698 90.5166 153.4C89.9796 152.101 89.7038 150.71 89.7051 149.305C89.7038 147.901 89.9796 146.509 90.5166 145.211C91.0536 143.913 91.8413 142.734 92.8347 141.74C93.828 140.747 95.0075 139.959 96.3056 139.422C97.6037 138.885 98.9949 138.61 100.4 138.611C101.804 138.61 103.196 138.885 104.494 139.422C105.792 139.959 106.971 140.747 107.965 141.74C108.958 142.734 109.746 143.913 110.283 145.211C110.82 146.509 111.096 147.901 111.094 149.305C111.094 155.19 106.314 160 100.4 160ZM100.4 61.3892C98.9949 61.3904 97.6037 61.1147 96.3056 60.5777C95.0075 60.0407 93.828 59.2529 92.8347 58.2596C91.8413 57.2663 91.0536 56.0868 90.5166 54.7887C89.9796 53.4906 89.7038 52.0994 89.7051 50.6946C89.7038 49.2898 89.9796 47.8986 90.5166 46.6005C91.0536 45.3024 91.8413 44.1229 92.8347 43.1296C93.828 42.1362 95.0075 41.3485 96.3056 40.8115C97.6037 40.2745 98.9949 39.9987 100.4 40C101.804 39.9987 103.196 40.2745 104.494 40.8115C105.792 41.3485 106.971 42.1362 107.965 43.1296C108.958 44.1229 109.746 45.3024 110.283 46.6005C110.82 47.8986 111.096 49.2898 111.094 50.6946C111.096 52.0994 110.82 53.4906 110.283 54.7887C109.746 56.0868 108.958 57.2663 107.965 58.2596C106.971 59.2529 105.792 60.0407 104.494 60.5777C103.196 61.1147 101.804 61.3904 100.4 61.3892Z" fill="white"/>
</g>
<defs>
<filter id="filter0_dd_3_128" x="45" y="38" width="114.799" height="128" filterUnits="userSpaceOnUse" color-interpolation-filters="sRGB">
<feFlood flood-opacity="0" result="BackgroundImageFix"/>
<feColorMatrix in="SourceAlpha" type="matrix" values="0 0 0 0 0 0 0 0 0 0 0 0 0 0 0 0 0 0 127 0" result="hardAlpha"/>
<feOffset dx="2" dy="2"/>
<feGaussianBlur stdDeviation="2"/>
<feComposite in2="hardAlpha" operator="out"/>
<feColorMatrix type="matrix" values="0 0 0 0 0 0 0 0 0 0 0 0 0 0 0 0 0 0 0.25 0"/>
<feBlend mode="normal" in2="BackgroundImageFix" result="effect1_dropShadow_3_128"/>
<feColorMatrix in="SourceAlpha" type="matrix" values="0 0 0 0 0 0 0 0 0 0 0 0 0 0 0 0 0 0 127 0" result="hardAlpha"/>
<feOffset dx="2" dy="2"/>
<feGaussianBlur stdDeviation="0.5"/>
<feComposite in2="hardAlpha" operator="out"/>
<feColorMatrix type="matrix" values="0 0 0 0 0 0 0 0 0 0 0 0 0 0 0 0 0 0 0.1 0"/>
<feBlend mode="normal" in2="effect1_dropShadow_3_128" result="effect2_dropShadow_3_128"/>
<feBlend mode="normal" in="SourceGraphic" in2="effect2_dropShadow_3_128" result="shape"/>
</filter>
<linearGradient id="paint0_linear_3_128" x1="100" y1="200" x2="100" y2="-7.51112e-07" gradientUnits="userSpaceOnUse">
<stop stop-color="#700C4F"/>
<stop offset="0.463542" stop-color="#E434AA" stop-opacity="0"/>
</linearGradient>
</defs>
</svg>
