<svg width="200" height="200" viewBox="0 0 200 200" fill="none" xmlns="http://www.w3.org/2000/svg">
<rect width="200" height="200" rx="16" fill="white"/>
<rect width="200" height="200" rx="16" fill="url(#paint0_linear_9_177)"/>
<path d="M20 115.229V74H24.9926V92.3599H46.9762V74H51.9688V115.229H46.9762V96.7888H24.9926V115.229H20Z" fill="black"/>
<path d="M80.8071 102.587V84.3073H85.5582V115.229H80.8071V109.995H80.485C79.7603 111.565 78.633 112.901 77.103 114.001C75.573 115.088 73.6403 115.632 71.3051 115.632C69.3725 115.632 67.6546 115.209 66.1514 114.364C64.6483 113.505 63.4672 112.216 62.6083 110.498C61.7493 108.767 61.3199 106.586 61.3199 103.956V84.3073H66.0709V103.634C66.0709 105.888 66.7017 107.687 67.9633 109.029C69.2383 110.371 70.8622 111.042 72.8351 111.042C74.0161 111.042 75.2173 110.74 76.4386 110.136C77.6733 109.532 78.7068 108.606 79.5389 107.358C80.3844 106.11 80.8071 104.519 80.8071 102.587Z" fill="black"/>
<path d="M116.163 91.2326L111.895 92.4404C111.627 91.7291 111.231 91.0379 110.707 90.3669C110.197 89.6824 109.5 89.1187 108.614 88.6759C107.728 88.233 106.594 88.0115 105.212 88.0115C103.319 88.0115 101.742 88.4477 100.481 89.3201C99.2325 90.179 98.6084 91.2728 98.6084 92.6015C98.6084 93.7825 99.0379 94.7153 99.8968 95.3998C100.756 96.0842 102.098 96.6546 103.923 97.1109L108.513 98.2383C111.278 98.9094 113.338 99.9361 114.693 101.318C116.049 102.687 116.727 104.452 116.727 106.613C116.727 108.385 116.217 109.968 115.197 111.364C114.19 112.76 112.781 113.86 110.969 114.666C109.157 115.471 107.05 115.873 104.648 115.873C101.494 115.873 98.8835 115.189 96.8167 113.82C94.7499 112.451 93.4413 110.451 92.8911 107.821L97.4005 106.694C97.83 108.358 98.642 109.606 99.8364 110.438C101.044 111.27 102.621 111.686 104.567 111.686C106.782 111.686 108.54 111.216 109.842 110.277C111.157 109.324 111.815 108.183 111.815 106.855C111.815 105.781 111.439 104.882 110.687 104.157C109.936 103.419 108.782 102.869 107.225 102.506L102.071 101.298C99.2392 100.627 97.1589 99.5871 95.8303 98.1779C94.515 96.7553 93.8574 94.977 93.8574 92.8431C93.8574 91.0983 94.3473 89.5549 95.327 88.2128C96.3201 86.8707 97.6689 85.8172 99.3734 85.0522C101.091 84.2872 103.037 83.9047 105.212 83.9047C108.272 83.9047 110.674 84.5757 112.419 85.9178C114.177 87.2599 115.425 89.0315 116.163 91.2326Z" fill="black"/>
<path d="M128.307 103.956L128.227 98.0773H129.193L142.722 84.3073H148.6L134.186 98.8825H133.783L128.307 103.956ZM123.878 115.229V74H128.629V115.229H123.878ZM143.527 115.229L131.448 99.9294L134.83 96.6278L149.566 115.229H143.527Z" fill="black"/>
<path d="M157.775 126.825C156.97 126.825 156.252 126.758 155.621 126.624C154.99 126.503 154.554 126.382 154.312 126.261L155.52 122.074C156.674 122.369 157.694 122.477 158.58 122.396C159.466 122.316 160.251 121.92 160.935 121.208C161.633 120.51 162.271 119.376 162.848 117.806L163.734 115.39L152.299 84.3073H157.453L165.988 108.948H166.311L174.846 84.3073H180L166.874 119.739C166.284 121.336 165.552 122.658 164.68 123.705C163.808 124.765 162.794 125.55 161.64 126.06C160.499 126.57 159.211 126.825 157.775 126.825Z" fill="black"/>
<defs>
<linearGradient id="paint0_linear_9_177" x1="100" y1="200" x2="100" y2="-7.51112e-07" gradientUnits="userSpaceOnUse">
<stop stop-opacity="0.51"/>
<stop offset="0.463542" stop-opacity="0"/>
</linearGradient>
</defs>
</svg>
