<svg width="200" height="200" viewBox="0 0 200 200" fill="none" xmlns="http://www.w3.org/2000/svg">
<rect width="200" height="200" rx="16" fill="white"/>
<rect width="200" height="200" rx="16" fill="url(#paint0_linear_302_23)"/>
<g filter="url(#filter0_dd_302_23)">
<path d="M70.2672 86.952H80.6072V91H65.2512V60.42H70.2672V86.952ZM87.354 63.544C86.4446 63.544 85.682 63.236 85.066 62.62C84.45 62.004 84.142 61.2413 84.142 60.332C84.142 59.4227 84.45 58.66 85.066 58.044C85.682 57.428 86.4446 57.12 87.354 57.12C88.234 57.12 88.982 57.428 89.598 58.044C90.214 58.66 90.522 59.4227 90.522 60.332C90.522 61.2413 90.214 62.004 89.598 62.62C88.982 63.236 88.234 63.544 87.354 63.544ZM89.818 66.756V91H84.802V66.756H89.818ZM108.636 66.36C110.542 66.36 112.244 66.756 113.74 67.548C115.265 68.34 116.453 69.5133 117.304 71.068C118.154 72.6227 118.58 74.5 118.58 76.7V91H113.608V77.448C113.608 75.2773 113.065 73.62 111.98 72.476C110.894 71.3027 109.413 70.716 107.536 70.716C105.658 70.716 104.162 71.3027 103.048 72.476C101.962 73.62 101.42 75.2773 101.42 77.448V91H96.4035V66.756H101.42V69.528C102.241 68.5307 103.282 67.7533 104.544 67.196C105.834 66.6387 107.198 66.36 108.636 66.36ZM130.83 70.848V84.268C130.83 85.1773 131.035 85.8373 131.446 86.248C131.886 86.6293 132.619 86.82 133.646 86.82H136.726V91H132.766C130.507 91 128.776 90.472 127.574 89.416C126.371 88.36 125.77 86.644 125.77 84.268V70.848H122.91V66.756H125.77V60.728H130.83V66.756H136.726V70.848H130.83ZM33.6045 139.308C31.5512 139.308 29.7032 138.956 28.0605 138.252C26.4178 137.519 25.1272 136.492 24.1885 135.172C23.2498 133.852 22.7805 132.312 22.7805 130.552H28.1485C28.2658 131.872 28.7792 132.957 29.6885 133.808C30.6272 134.659 31.9325 135.084 33.6045 135.084C35.3352 135.084 36.6845 134.673 37.6525 133.852C38.6205 133.001 39.1045 131.916 39.1045 130.596C39.1045 129.569 38.7965 128.733 38.1805 128.088C37.5938 127.443 36.8458 126.944 35.9365 126.592C35.0565 126.24 33.8245 125.859 32.2405 125.448C30.2458 124.92 28.6178 124.392 27.3565 123.864C26.1245 123.307 25.0685 122.456 24.1885 121.312C23.3085 120.168 22.8685 118.643 22.8685 116.736C22.8685 114.976 23.3085 113.436 24.1885 112.116C25.0685 110.796 26.3005 109.784 27.8845 109.08C29.4685 108.376 31.3018 108.024 33.3845 108.024C36.3472 108.024 38.7672 108.772 40.6445 110.268C42.5512 111.735 43.6072 113.759 43.8125 116.34H38.2685C38.1805 115.225 37.6525 114.272 36.6845 113.48C35.7165 112.688 34.4405 112.292 32.8565 112.292C31.4192 112.292 30.2458 112.659 29.3365 113.392C28.4272 114.125 27.9725 115.181 27.9725 116.56C27.9725 117.499 28.2512 118.276 28.8085 118.892C29.3952 119.479 30.1285 119.948 31.0085 120.3C31.8885 120.652 33.0912 121.033 34.6165 121.444C36.6405 122.001 38.2832 122.559 39.5445 123.116C40.8352 123.673 41.9205 124.539 42.8005 125.712C43.7098 126.856 44.1645 128.396 44.1645 130.332C44.1645 131.887 43.7392 133.353 42.8885 134.732C42.0672 136.111 40.8498 137.225 39.2365 138.076C37.6525 138.897 35.7752 139.308 33.6045 139.308ZM55.9352 118.848V132.268C55.9352 133.177 56.1405 133.837 56.5512 134.248C56.9912 134.629 57.7245 134.82 58.7512 134.82H61.8312V139H57.8712C55.6125 139 53.8819 138.472 52.6792 137.416C51.4765 136.36 50.8752 134.644 50.8752 132.268V118.848H48.0152V114.756H50.8752V108.728H55.9352V114.756H61.8312V118.848H55.9352ZM64.7823 126.768C64.7823 124.333 65.281 122.177 66.2783 120.3C67.305 118.423 68.6836 116.971 70.4143 115.944C72.1743 114.888 74.1103 114.36 76.2223 114.36C78.129 114.36 79.7863 114.741 81.1943 115.504C82.6316 116.237 83.7756 117.161 84.6263 118.276V114.756H89.6863V139H84.6263V135.392C83.7756 136.536 82.617 137.489 81.1503 138.252C79.6836 139.015 78.0116 139.396 76.1343 139.396C74.0516 139.396 72.145 138.868 70.4143 137.812C68.6836 136.727 67.305 135.231 66.2783 133.324C65.281 131.388 64.7823 129.203 64.7823 126.768ZM84.6263 126.856C84.6263 125.184 84.2743 123.732 83.5703 122.5C82.8956 121.268 82.001 120.329 80.8863 119.684C79.7716 119.039 78.569 118.716 77.2783 118.716C75.9876 118.716 74.785 119.039 73.6703 119.684C72.5556 120.3 71.6463 121.224 70.9423 122.456C70.2676 123.659 69.9303 125.096 69.9303 126.768C69.9303 128.44 70.2676 129.907 70.9423 131.168C71.6463 132.429 72.5556 133.397 73.6703 134.072C74.8143 134.717 76.017 135.04 77.2783 135.04C78.569 135.04 79.7716 134.717 80.8863 134.072C82.001 133.427 82.8956 132.488 83.5703 131.256C84.2743 129.995 84.6263 128.528 84.6263 126.856ZM106.043 114.36C107.92 114.36 109.577 114.741 111.015 115.504C112.481 116.237 113.625 117.161 114.447 118.276V114.756H119.507V139.396C119.507 141.625 119.037 143.605 118.099 145.336C117.16 147.096 115.796 148.475 114.007 149.472C112.247 150.469 110.135 150.968 107.671 150.968C104.385 150.968 101.657 150.191 99.4866 148.636C97.3159 147.111 96.0839 145.028 95.7906 142.388H100.763C101.144 143.649 101.951 144.661 103.183 145.424C104.444 146.216 105.94 146.612 107.671 146.612C109.695 146.612 111.323 145.996 112.555 144.764C113.816 143.532 114.447 141.743 114.447 139.396V135.348C113.596 136.492 112.437 137.46 110.971 138.252C109.533 139.015 107.891 139.396 106.043 139.396C103.931 139.396 101.995 138.868 100.235 137.812C98.5039 136.727 97.1253 135.231 96.0986 133.324C95.1013 131.388 94.6026 129.203 94.6026 126.768C94.6026 124.333 95.1013 122.177 96.0986 120.3C97.1253 118.423 98.5039 116.971 100.235 115.944C101.995 114.888 103.931 114.36 106.043 114.36ZM114.447 126.856C114.447 125.184 114.095 123.732 113.391 122.5C112.716 121.268 111.821 120.329 110.707 119.684C109.592 119.039 108.389 118.716 107.099 118.716C105.808 118.716 104.605 119.039 103.491 119.684C102.376 120.3 101.467 121.224 100.763 122.456C100.088 123.659 99.7506 125.096 99.7506 126.768C99.7506 128.44 100.088 129.907 100.763 131.168C101.467 132.429 102.376 133.397 103.491 134.072C104.635 134.717 105.837 135.04 107.099 135.04C108.389 135.04 109.592 134.717 110.707 134.072C111.821 133.427 112.716 132.488 113.391 131.256C114.095 129.995 114.447 128.528 114.447 126.856ZM148.315 126.284C148.315 127.193 148.256 128.015 148.139 128.748H129.615C129.762 130.684 130.48 132.239 131.771 133.412C133.062 134.585 134.646 135.172 136.523 135.172C139.222 135.172 141.128 134.043 142.243 131.784H147.655C146.922 134.013 145.587 135.847 143.651 137.284C141.744 138.692 139.368 139.396 136.523 139.396C134.206 139.396 132.123 138.883 130.275 137.856C128.456 136.8 127.019 135.333 125.963 133.456C124.936 131.549 124.423 129.349 124.423 126.856C124.423 124.363 124.922 122.177 125.919 120.3C126.946 118.393 128.368 116.927 130.187 115.9C132.035 114.873 134.147 114.36 136.523 114.36C138.811 114.36 140.85 114.859 142.639 115.856C144.428 116.853 145.822 118.261 146.819 120.08C147.816 121.869 148.315 123.937 148.315 126.284ZM143.079 124.7C143.05 122.852 142.39 121.371 141.099 120.256C139.808 119.141 138.21 118.584 136.303 118.584C134.572 118.584 133.091 119.141 131.859 120.256C130.627 121.341 129.894 122.823 129.659 124.7H143.079ZM151.579 126.768C151.579 124.333 152.078 122.177 153.075 120.3C154.102 118.423 155.481 116.971 157.211 115.944C158.971 114.888 160.922 114.36 163.063 114.36C164.647 114.36 166.202 114.712 167.727 115.416C169.282 116.091 170.514 117 171.423 118.144V106.44H176.483V139H171.423V135.348C170.602 136.521 169.458 137.489 167.991 138.252C166.554 139.015 164.897 139.396 163.019 139.396C160.907 139.396 158.971 138.868 157.211 137.812C155.481 136.727 154.102 135.231 153.075 133.324C152.078 131.388 151.579 129.203 151.579 126.768ZM171.423 126.856C171.423 125.184 171.071 123.732 170.367 122.5C169.693 121.268 168.798 120.329 167.683 119.684C166.569 119.039 165.366 118.716 164.075 118.716C162.785 118.716 161.582 119.039 160.467 119.684C159.353 120.3 158.443 121.224 157.739 122.456C157.065 123.659 156.727 125.096 156.727 126.768C156.727 128.44 157.065 129.907 157.739 131.168C158.443 132.429 159.353 133.397 160.467 134.072C161.611 134.717 162.814 135.04 164.075 135.04C165.366 135.04 166.569 134.717 167.683 134.072C168.798 133.427 169.693 132.488 170.367 131.256C171.071 129.995 171.423 128.528 171.423 126.856Z" fill="black"/>
</g>
<defs>
<filter id="filter0_dd_302_23" x="20.7805" y="55.12" width="161.703" height="101.848" filterUnits="userSpaceOnUse" color-interpolation-filters="sRGB">
<feFlood flood-opacity="0" result="BackgroundImageFix"/>
<feColorMatrix in="SourceAlpha" type="matrix" values="0 0 0 0 0 0 0 0 0 0 0 0 0 0 0 0 0 0 127 0" result="hardAlpha"/>
<feOffset dx="2" dy="2"/>
<feGaussianBlur stdDeviation="2"/>
<feComposite in2="hardAlpha" operator="out"/>
<feColorMatrix type="matrix" values="0 0 0 0 0 0 0 0 0 0 0 0 0 0 0 0 0 0 0.25 0"/>
<feBlend mode="normal" in2="BackgroundImageFix" result="effect1_dropShadow_302_23"/>
<feColorMatrix in="SourceAlpha" type="matrix" values="0 0 0 0 0 0 0 0 0 0 0 0 0 0 0 0 0 0 127 0" result="hardAlpha"/>
<feOffset dx="2" dy="2"/>
<feGaussianBlur stdDeviation="0.5"/>
<feComposite in2="hardAlpha" operator="out"/>
<feColorMatrix type="matrix" values="0 0 0 0 0 0 0 0 0 0 0 0 0 0 0 0 0 0 0.1 0"/>
<feBlend mode="normal" in2="effect1_dropShadow_302_23" result="effect2_dropShadow_302_23"/>
<feBlend mode="normal" in="SourceGraphic" in2="effect2_dropShadow_302_23" result="shape"/>
</filter>
<linearGradient id="paint0_linear_302_23" x1="100" y1="200" x2="100" y2="-7.51112e-07" gradientUnits="userSpaceOnUse">
<stop stop-opacity="0.51"/>
<stop offset="0.463542" stop-opacity="0"/>
</linearGradient>
</defs>
</svg>
