<svg width="200" height="200" viewBox="0 0 200 200" fill="none" xmlns="http://www.w3.org/2000/svg">
<rect width="200" height="200" rx="16" fill="#242938"/>
<rect width="200" height="200" rx="16" fill="url(#paint0_linear_3_149)"/>
<g filter="url(#filter0_dd_3_149)">
<path d="M110.124 40C109.276 40 108.487 40.1867 107.76 40.4355C109.306 41.4934 110.155 42.8934 110.579 44.4801C110.61 44.6979 110.67 44.8535 110.7 45.0713C110.731 45.258 110.761 45.4446 110.761 45.6313C110.883 48.3692 110.064 48.7114 109.488 50.3292C108.609 52.4138 108.851 54.6539 109.912 56.4583C110.003 56.6761 110.124 56.925 110.276 57.1428C109.124 49.2714 115.521 48.0891 116.704 45.6313C116.794 43.4846 115.066 42.0534 113.702 41.0578C112.398 40.2489 111.216 40 110.124 40ZM119.766 41.7734C119.644 42.489 119.735 42.3023 119.705 42.6757C119.675 42.9246 119.675 43.2357 119.644 43.4846C119.584 43.7335 119.523 43.9824 119.432 44.2313C119.371 44.4801 119.28 44.729 119.19 44.9779C119.068 45.2269 118.978 45.4446 118.856 45.6935C118.765 45.818 118.704 45.9424 118.614 46.0669C118.553 46.1602 118.492 46.2535 118.432 46.3469C118.28 46.5647 118.128 46.7825 117.977 46.9691C117.795 47.1558 117.643 47.3736 117.431 47.5292C117.431 47.5603 117.431 47.5603 117.431 47.5603C117.249 47.7159 117.067 47.9025 116.855 48.0581C116.219 48.5559 115.491 48.9293 114.824 49.3959C114.612 49.5515 114.4 49.6759 114.217 49.8626C114.005 50.0181 113.824 50.1737 113.641 50.3604C113.429 50.5471 113.278 50.7337 113.096 50.9515C112.944 51.1382 112.762 51.356 112.641 51.5738C112.489 51.7916 112.338 52.0093 112.217 52.2271C112.095 52.476 112.005 52.6938 111.883 52.9427C111.792 53.1916 111.701 53.4094 111.641 53.6583C111.55 53.9383 111.489 54.1872 111.429 54.4361C111.398 54.5606 111.398 54.7161 111.367 54.8406C111.337 54.965 111.337 55.0895 111.307 55.2139C111.307 55.4628 111.277 55.7428 111.277 55.9917C111.277 56.1784 111.277 56.3651 111.307 56.5517C111.307 56.8006 111.337 57.0495 111.398 57.3295C111.429 57.5784 111.489 57.8273 111.55 58.0762C111.641 58.3251 111.701 58.574 111.792 58.8229C111.853 58.9785 111.944 59.1341 112.005 59.2585L105.031 56.4895C103.849 56.1473 102.697 55.8361 101.514 55.5561C100.878 55.4006 100.241 55.245 99.6042 55.0895C97.7851 54.7161 95.936 54.4361 94.0864 54.2495C94.0258 54.2495 93.9958 54.2183 93.9347 54.2183C92.1156 54.0316 90.3271 53.9383 88.508 53.9383C87.1738 53.9383 85.8402 54.0005 84.5364 54.0938C82.687 54.2183 80.8377 54.4671 78.9882 54.7783C78.5335 54.8405 78.0787 54.9338 77.6239 55.0272C76.6841 55.2139 75.7745 55.4317 74.8953 55.6494C74.4406 55.7739 73.9858 55.8983 73.531 56.0228C73.0763 56.2094 72.6518 56.4272 72.2273 56.6139C71.8938 56.7695 71.5603 56.925 71.2269 57.0806C71.1663 57.1117 71.1055 57.1117 71.0753 57.1428C70.7721 57.2983 70.4992 57.4227 70.2264 57.5784C70.1355 57.6095 70.0748 57.6405 70.0141 57.6717C69.6807 57.8273 69.3472 58.0139 69.0743 58.1695C68.8621 58.2628 68.6499 58.3873 68.4679 58.4806C68.377 58.5428 68.2557 58.6051 68.1951 58.6362C67.9222 58.7917 67.6494 58.9473 67.4068 59.1029C67.134 59.2584 66.8914 59.4139 66.6792 59.5695C66.4669 59.7251 66.2548 59.8495 66.0729 60.0051C66.0425 60.0362 66.0123 60.0362 65.9819 60.0673C65.8 60.1917 65.5877 60.3473 65.4058 60.5028C65.4058 60.5028 65.3755 60.534 65.3453 60.565C65.1937 60.6895 65.0421 60.8139 64.8905 60.9384C64.8299 60.9695 64.7692 61.0317 64.7086 61.0628C64.557 61.1874 64.4054 61.3429 64.2538 61.4673C64.2234 61.5295 64.1628 61.5607 64.1325 61.5918C63.9506 61.7785 63.7687 61.934 63.5868 62.1207C63.5564 62.1207 63.5564 62.1519 63.5262 62.1829C63.3443 62.3384 63.1624 62.5251 62.9805 62.7118C62.9501 62.7429 62.9501 62.774 62.9199 62.774C62.7683 62.9295 62.6167 63.0851 62.4651 63.2718C62.4045 63.3339 62.3135 63.3963 62.2529 63.4584C62.1013 63.6451 61.9194 63.8318 61.7375 64.0185C61.7071 64.0806 61.6465 64.1118 61.6162 64.174C61.3736 64.4229 61.1614 64.6718 60.9189 64.9207C60.8885 64.9519 60.8583 64.9829 60.8279 65.0141C60.3428 65.543 59.8274 66.0719 59.2817 66.5385C58.7359 67.0363 58.1599 67.503 57.5839 67.9075C56.9775 68.3431 56.4015 68.7164 55.7648 69.0897C55.1584 69.432 54.5218 69.7431 53.8548 70.0231C53.2181 70.3031 52.5511 70.5521 51.8841 70.7698C50.6107 71.0498 49.3071 71.5787 48.1853 71.672C47.9428 71.672 47.6699 71.7342 47.4274 71.7654C47.1545 71.8275 46.912 71.8899 46.6695 71.9521C46.4269 72.0454 46.1843 72.1387 45.9418 72.2321C45.6993 72.3254 45.4567 72.4499 45.2142 72.5743C45.0019 72.7299 44.7594 72.8543 44.5472 73.0099C44.335 73.1654 44.1227 73.3521 43.9408 73.5388C43.7286 73.6944 43.5164 73.9122 43.3345 74.0988C43.1526 74.3166 42.9707 74.5033 42.8191 74.7211C42.6675 74.97 42.4856 75.1878 42.3643 75.4367C42.2127 75.6545 42.0611 75.9033 41.9399 76.1522C41.8185 76.4322 41.6973 76.6811 41.6063 76.9611C41.5154 77.21 41.4244 77.49 41.3335 77.7701C41.2729 78.0189 41.2122 78.2678 41.1819 78.5167C41.1819 78.5479 41.1515 78.5789 41.1515 78.6101C41.0909 78.8901 41.0909 79.2635 41.0606 79.4501C41.0302 79.6679 41 79.8546 41 80.0724C41 80.1969 41 80.3523 41.0304 80.4768C41.0607 80.6946 41.0909 80.8813 41.1517 81.068C41.2123 81.2546 41.273 81.4413 41.3639 81.628C41.3639 81.6591 41.3639 81.6591 41.3639 81.6591C41.4549 81.8458 41.5761 82.0325 41.6974 82.2192C41.8187 82.4058 41.9399 82.5925 42.0915 82.7792C42.2431 82.9347 42.4251 83.1214 42.607 83.277C42.7888 83.4636 42.9708 83.6192 43.183 83.7747C43.9106 84.4281 44.0925 84.6459 45.0324 85.1435C45.184 85.2373 45.3355 85.2995 45.5175 85.3927C45.5478 85.3927 45.5781 85.4238 45.6084 85.4238C45.6084 85.486 45.6084 85.5171 45.6388 85.5793C45.6691 85.828 45.7297 86.0773 45.7903 86.326C45.8509 86.6058 45.942 86.8551 46.0329 87.0727C46.1239 87.2593 46.1845 87.4458 46.2755 87.6329C46.3059 87.6951 46.3361 87.7573 46.3664 87.7884C46.4878 88.0371 46.609 88.2547 46.7302 88.4729C46.8818 88.6905 47.0334 88.9082 47.185 89.1264C47.3366 89.3129 47.5185 89.5305 47.7004 89.7171C47.8823 89.9042 48.0642 90.0596 48.2764 90.2462C48.2764 90.2462 48.3068 90.2773 48.337 90.2773C48.5189 90.4327 48.7008 90.5887 48.8827 90.7131C49.095 90.8685 49.3072 90.9929 49.5497 91.1173C49.762 91.2416 50.0045 91.366 50.247 91.4598C50.4289 91.5531 50.6412 91.6153 50.8534 91.6775C50.8838 91.7085 50.914 91.7085 50.9747 91.7396C51.096 91.7707 51.2476 91.8018 51.3689 91.8329C51.2779 93.5129 51.2476 95.0996 51.4902 95.6598C51.763 96.2822 53.097 94.384 54.431 92.206C54.2491 94.3529 54.1278 96.8729 54.431 97.6196C54.7645 98.3975 56.5836 95.9707 58.1601 93.2953C79.6555 88.1925 99.2709 103.438 101.333 124.968C100.938 121.607 96.9064 119.741 95.0567 120.207C94.1475 122.509 92.6011 125.465 90.1149 127.301C90.3276 125.247 90.2365 123.132 89.8122 121.079C89.1451 123.941 87.8415 126.617 86.0524 128.918C83.1724 129.137 80.2921 127.705 78.7763 125.558C78.6549 125.465 78.6247 125.279 78.5337 125.154C78.4428 124.936 78.3518 124.718 78.2911 124.501C78.2002 124.283 78.1396 124.065 78.1092 123.847C78.0789 123.63 78.0789 123.412 78.0789 123.163C78.0789 123.007 78.0789 122.852 78.0789 122.696C78.1092 122.478 78.1698 122.261 78.2305 122.043C78.291 121.825 78.3518 121.607 78.4427 121.389C78.564 121.172 78.6549 120.954 78.8065 120.736C79.3219 119.243 79.3219 118.029 78.3821 117.314C78.2002 117.189 78.0183 117.096 77.806 117.003C77.6847 116.971 77.5332 116.909 77.4119 116.878C77.3209 116.847 77.2603 116.816 77.1694 116.785C76.9571 116.723 76.7449 116.66 76.5327 116.629C76.3205 116.567 76.1082 116.536 75.896 116.536C75.6838 116.505 75.4413 116.474 75.229 116.474C75.0774 116.474 74.9258 116.505 74.7742 116.505C74.5317 116.505 74.3195 116.536 74.1072 116.598C73.895 116.629 73.6828 116.66 73.4706 116.723C73.2583 116.785 73.0461 116.847 72.8339 116.941C72.6217 117.034 72.4398 117.127 72.2275 117.221C72.0456 117.314 71.8637 117.438 71.6515 117.531C64.5874 122.261 68.8016 133.337 73.6222 136.541C71.8031 136.884 69.9537 137.288 69.4383 137.693C69.4079 137.724 69.3777 137.755 69.3777 137.755C70.6814 138.564 72.0457 139.248 73.4706 139.839C75.411 140.492 77.4726 141.084 78.3821 141.332V141.363C80.8985 141.893 83.4452 142.079 86.0224 141.924C99.4531 140.959 110.458 130.475 112.459 116.66C112.52 116.941 112.581 117.189 112.641 117.469C112.732 118.029 112.853 118.621 112.914 119.211C112.914 119.211 112.914 119.211 112.914 119.243C112.975 119.523 113.005 119.803 113.035 120.052C113.035 120.114 113.035 120.145 113.035 120.176C113.066 120.456 113.096 120.737 113.096 120.985C113.127 121.327 113.157 121.67 113.157 122.012C113.157 122.167 113.157 122.323 113.157 122.51C113.157 122.665 113.187 122.852 113.187 123.007C113.187 123.194 113.157 123.381 113.157 123.567C113.157 123.723 113.157 123.879 113.157 124.003C113.157 124.221 113.127 124.407 113.127 124.626C113.127 124.75 113.127 124.874 113.096 125.03C113.096 125.247 113.065 125.466 113.065 125.714C113.035 125.808 113.035 125.901 113.035 125.994C113.005 126.243 112.974 126.461 112.944 126.71C112.944 126.803 112.944 126.896 112.914 126.99C112.883 127.301 112.823 127.581 112.793 127.892V127.923V127.955C112.732 128.234 112.671 128.546 112.611 128.826C112.611 128.857 112.611 128.888 112.611 128.919C112.55 129.199 112.489 129.479 112.429 129.759C112.429 129.79 112.398 129.852 112.398 129.883C112.338 130.164 112.277 130.443 112.186 130.724C112.186 130.755 112.186 130.785 112.186 130.817C112.095 131.128 112.004 131.408 111.943 131.688C111.913 131.719 111.913 131.75 111.913 131.75C111.822 132.061 111.731 132.372 111.64 132.684C111.519 132.995 111.428 133.275 111.307 133.586C111.186 133.897 111.095 134.208 110.974 134.488C110.852 134.799 110.731 135.079 110.61 135.39H110.579C110.458 135.671 110.337 135.981 110.185 136.261C110.154 136.355 110.124 136.417 110.094 136.479C110.064 136.511 110.064 136.542 110.033 136.573C108.063 140.648 105.153 144.226 101.514 147.026C101.272 147.182 101.029 147.368 100.787 147.555C100.726 147.617 100.635 147.649 100.575 147.711C100.362 147.866 100.15 148.022 99.9075 148.177L99.998 148.364H100.029C100.453 148.302 100.877 148.239 101.302 148.177H101.332C102.12 148.053 102.909 147.897 103.697 147.742C103.909 147.711 104.152 147.649 104.364 147.587C104.515 147.555 104.637 147.524 104.789 147.493C105.001 147.462 105.213 147.399 105.425 147.368C105.607 147.306 105.789 147.275 105.971 147.213C109.003 146.466 111.943 145.44 114.763 144.226C109.943 150.978 103.485 156.422 95.936 160C99.4225 159.751 102.909 159.16 106.274 158.165C118.492 154.462 128.77 146.03 134.925 134.675C133.681 141.861 130.892 148.706 126.769 154.68C129.71 152.689 132.408 150.386 134.864 147.773C141.655 140.493 146.112 131.252 147.628 121.328C148.659 126.243 148.962 131.315 148.507 136.323C170.397 104.994 150.326 72.5125 141.928 63.9567C141.898 63.8945 141.868 63.8634 141.868 63.8011C141.837 63.8323 141.837 63.8323 141.837 63.8633C141.837 63.8322 141.837 63.8322 141.807 63.8011C141.807 64.1745 141.776 64.5478 141.746 64.9212C141.655 65.6367 141.564 66.3212 141.443 67.0057C141.291 67.6902 141.109 68.3746 140.927 69.0591C140.715 69.7124 140.473 70.3969 140.2 71.0503C139.927 71.6725 139.624 72.3259 139.29 72.9481C138.957 73.5392 138.593 74.1615 138.199 74.7215C137.805 75.3126 137.38 75.8726 136.956 76.4016C136.501 76.9616 136.016 77.4594 135.531 77.9571C135.228 78.2372 134.955 78.4861 134.652 78.735C134.409 78.9528 134.197 79.1394 133.954 79.3572C133.409 79.7928 132.863 80.1972 132.257 80.5706C131.681 80.9439 131.074 81.3173 130.468 81.6284C129.831 81.9395 129.195 82.2195 128.558 82.4995C127.921 82.7484 127.254 82.9662 126.587 83.1529C125.92 83.3396 125.223 83.4951 124.556 83.6196C123.858 83.7441 123.161 83.8063 122.494 83.8685C122.009 83.8997 121.524 83.9307 121.039 83.9307C120.342 83.9307 119.644 83.8685 118.977 83.8062C118.28 83.744 117.583 83.6506 116.916 83.495C116.218 83.3705 115.552 83.1839 114.885 82.9661H114.854C115.521 82.904 116.188 82.8416 116.855 82.7172C117.552 82.5927 118.219 82.4372 118.887 82.2505C119.553 82.0639 120.22 81.8461 120.857 81.5972C121.524 81.3483 122.16 81.0372 122.767 80.726C123.403 80.4149 123.979 80.0727 124.586 79.6993C125.162 79.2949 125.738 78.8904 126.284 78.4549C126.829 78.0193 127.345 77.5526 127.83 77.0548C128.345 76.5881 128.8 76.0592 129.255 75.5303C129.71 74.9703 130.134 74.4103 130.528 73.8503C130.589 73.7569 130.65 73.6325 130.71 73.5391C131.014 73.0413 131.316 72.5436 131.59 72.0457C131.923 71.4235 132.226 70.8013 132.499 70.1479C132.772 69.4945 133.014 68.8412 133.227 68.1567C133.439 67.5033 133.59 66.8189 133.742 66.1344C133.864 65.4188 133.985 64.7344 134.045 64.0499C134.106 63.3343 134.166 62.6187 134.166 61.9343C134.166 61.4365 134.136 60.9387 134.106 60.4409C134.045 59.7253 133.954 59.0408 133.864 58.3564C133.742 57.6408 133.59 56.9563 133.409 56.2719C133.197 55.6185 132.984 54.9341 132.742 54.2807C132.499 53.6274 132.196 52.974 131.893 52.3517C131.559 51.7295 131.226 51.1073 130.862 50.5161C130.468 49.925 130.074 49.365 129.649 48.8049C129.195 48.276 128.74 47.7471 128.255 47.2182C128.012 46.9693 127.739 46.6893 127.467 46.4405C126.102 45.3515 124.677 44.3248 123.252 43.3914C123.04 43.2669 122.858 43.1737 122.646 43.0803C121.645 42.4269 120.706 42.0845 119.766 41.7734Z" fill="#E0234E"/>
</g>
<defs>
<filter id="filter0_dd_3_149" x="39" y="38" width="125.397" height="128" filterUnits="userSpaceOnUse" color-interpolation-filters="sRGB">
<feFlood flood-opacity="0" result="BackgroundImageFix"/>
<feColorMatrix in="SourceAlpha" type="matrix" values="0 0 0 0 0 0 0 0 0 0 0 0 0 0 0 0 0 0 127 0" result="hardAlpha"/>
<feOffset dx="2" dy="2"/>
<feGaussianBlur stdDeviation="2"/>
<feComposite in2="hardAlpha" operator="out"/>
<feColorMatrix type="matrix" values="0 0 0 0 0 0 0 0 0 0 0 0 0 0 0 0 0 0 0.25 0"/>
<feBlend mode="normal" in2="BackgroundImageFix" result="effect1_dropShadow_3_149"/>
<feColorMatrix in="SourceAlpha" type="matrix" values="0 0 0 0 0 0 0 0 0 0 0 0 0 0 0 0 0 0 127 0" result="hardAlpha"/>
<feOffset dx="2" dy="2"/>
<feGaussianBlur stdDeviation="0.5"/>
<feComposite in2="hardAlpha" operator="out"/>
<feColorMatrix type="matrix" values="0 0 0 0 0 0 0 0 0 0 0 0 0 0 0 0 0 0 0.1 0"/>
<feBlend mode="normal" in2="effect1_dropShadow_3_149" result="effect2_dropShadow_3_149"/>
<feBlend mode="normal" in="SourceGraphic" in2="effect2_dropShadow_3_149" result="shape"/>
</filter>
<linearGradient id="paint0_linear_3_149" x1="100" y1="200" x2="100" y2="-7.51112e-07" gradientUnits="userSpaceOnUse">
<stop offset="0.0001" stop-color="#191E2D"/>
<stop offset="0.463542" stop-color="#242938"/>
</linearGradient>
</defs>
</svg>
