<svg width="200" height="200" viewBox="0 0 200 200" fill="none" xmlns="http://www.w3.org/2000/svg">
<rect width="200" height="200" rx="16" fill="white"/>
<rect width="200" height="200" rx="16" fill="url(#paint0_linear_3_26)"/>
<g filter="url(#filter0_dd_3_26)">
<path d="M57.75 77H87.875V79.375H60.5V97.375H86.25V99.75H60.5V119.5H88.25V121.875H57.75V77ZM90.625 77H93.875L108.125 96.75L122.5 77L142.25 52L109.75 98.875L126.5 121.875H123.125L108 100.875L92.75 121.875H89.5L106.375 98.875L90.625 77ZM127.75 79.375V77H162.125V79.375H146.25V121.875H143.5V79.375H127.75ZM20 77H23.375L71.125 148L51.375 121.875L22.875 80.375L22.75 121.875H20V77ZM161.875 118.75C162.5 118.75 162.875 118.375 162.875 117.75C162.875 117.125 162.5 116.75 161.875 116.75C161.25 116.75 160.875 117.125 160.875 117.75C160.875 118.375 161.375 118.75 161.875 118.75ZM164.625 116.125C164.625 117.75 165.875 118.875 167.625 118.875C169.5 118.875 170.625 117.75 170.625 115.75V108.875H169.125V115.75C169.125 116.875 168.625 117.375 167.625 117.375C166.75 117.375 166.125 116.875 166.125 116H164.625V116.125ZM172.5 116C172.625 117.75 174 118.875 176.25 118.875C178.5 118.875 180 117.75 180 115.875C180 114.375 179.125 113.625 177.25 113.125L176.125 112.875C174.875 112.625 174.375 112.125 174.375 111.5C174.375 110.625 175.125 110 176.375 110C177.5 110 178.25 110.5 178.375 111.5H179.875C179.75 109.875 178.375 108.75 176.375 108.75C174.25 108.75 172.875 109.875 172.875 111.625C172.875 113 173.625 113.875 175.375 114.25L176.625 114.5C177.875 114.75 178.5 115.25 178.5 116C178.5 116.875 177.625 117.5 176.375 117.5C175.125 117.5 174.125 116.875 174 116H172.5Z" fill="black"/>
</g>
<defs>
<filter id="filter0_dd_3_26" x="18" y="50" width="168" height="104" filterUnits="userSpaceOnUse" color-interpolation-filters="sRGB">
<feFlood flood-opacity="0" result="BackgroundImageFix"/>
<feColorMatrix in="SourceAlpha" type="matrix" values="0 0 0 0 0 0 0 0 0 0 0 0 0 0 0 0 0 0 127 0" result="hardAlpha"/>
<feOffset dx="2" dy="2"/>
<feGaussianBlur stdDeviation="2"/>
<feComposite in2="hardAlpha" operator="out"/>
<feColorMatrix type="matrix" values="0 0 0 0 0 0 0 0 0 0 0 0 0 0 0 0 0 0 0.25 0"/>
<feBlend mode="normal" in2="BackgroundImageFix" result="effect1_dropShadow_3_26"/>
<feColorMatrix in="SourceAlpha" type="matrix" values="0 0 0 0 0 0 0 0 0 0 0 0 0 0 0 0 0 0 127 0" result="hardAlpha"/>
<feOffset dx="2" dy="2"/>
<feGaussianBlur stdDeviation="0.5"/>
<feComposite in2="hardAlpha" operator="out"/>
<feColorMatrix type="matrix" values="0 0 0 0 0 0 0 0 0 0 0 0 0 0 0 0 0 0 0.1 0"/>
<feBlend mode="normal" in2="effect1_dropShadow_3_26" result="effect2_dropShadow_3_26"/>
<feBlend mode="normal" in="SourceGraphic" in2="effect2_dropShadow_3_26" result="shape"/>
</filter>
<linearGradient id="paint0_linear_3_26" x1="100" y1="200" x2="100" y2="-7.51112e-07" gradientUnits="userSpaceOnUse">
<stop stop-opacity="0.51"/>
<stop offset="0.463542" stop-opacity="0"/>
</linearGradient>
</defs>
</svg>
