<svg width="140" height="140" viewBox="0 0 140 140" fill="none" xmlns="http://www.w3.org/2000/svg">
<rect width="140" height="140" fill="white"/>
<path d="M37.2563 52.375H60.6031V54.2156H39.3875V68.1656H59.3438V70.0062H39.3875V85.3125H60.8937V87.1531H37.2563V52.375ZM62.7344 52.375H65.2531L76.2969 67.6813L87.4375 52.375L102.744 33L77.5563 69.3281L90.5375 87.1531H87.9219L76.2 70.8781L64.3813 87.1531H61.8625L74.9406 69.3281L62.7344 52.375ZM91.5062 54.2156V52.375H118.147V54.2156H105.844V87.1531H103.713V54.2156H91.5062ZM8 52.375H10.6156L47.6219 107.4L32.3156 87.1531L10.2281 54.9906L10.1313 87.1531H8V52.375ZM117.953 84.7313C118.438 84.7313 118.728 84.4406 118.728 83.9562C118.728 83.4719 118.438 83.1812 117.953 83.1812C117.469 83.1812 117.178 83.4719 117.178 83.9562C117.178 84.4406 117.566 84.7313 117.953 84.7313ZM120.084 82.6969C120.084 83.9562 121.053 84.8281 122.409 84.8281C123.862 84.8281 124.734 83.9563 124.734 82.4062V77.0781H123.572V82.4062C123.572 83.2781 123.184 83.6656 122.409 83.6656C121.731 83.6656 121.247 83.2781 121.247 82.6H120.084V82.6969ZM126.188 82.6C126.284 83.9562 127.35 84.8281 129.094 84.8281C130.837 84.8281 132 83.9562 132 82.5031C132 81.3406 131.322 80.7594 129.869 80.3719L128.997 80.1781C128.028 79.9844 127.641 79.5969 127.641 79.1125C127.641 78.4344 128.222 77.95 129.191 77.95C130.062 77.95 130.644 78.3375 130.741 79.1125H131.903C131.806 77.8531 130.741 76.9813 129.191 76.9813C127.544 76.9813 126.478 77.8531 126.478 79.2094C126.478 80.275 127.059 80.9531 128.416 81.2437L129.384 81.4375C130.353 81.6313 130.838 82.0187 130.838 82.6C130.838 83.2781 130.159 83.7625 129.191 83.7625C128.222 83.7625 127.447 83.2781 127.35 82.6H126.188Z" fill="black"/>
</svg>
