<svg width="200" height="200" viewBox="0 0 200 200" fill="none" xmlns="http://www.w3.org/2000/svg">
<rect width="200" height="200" rx="16" fill="url(#paint0_linear_304_9)"/>
<path d="M97.2619 23.0802C95.2629 26.5785 83.6259 45.2121 82.6264 46.4258C82.2694 46.7827 78.4856 52.7797 74.1306 59.6335C53.2838 92.5457 47.9293 105.825 48.0007 124.601C48.0721 149.66 63.7786 171.792 86.3388 178.503C92.4786 180.359 104.544 180.502 110.755 178.86C128.175 174.291 141.24 162.011 147.737 144.234C148.665 141.664 149.236 139.594 149.093 139.594C148.951 139.594 149.165 138.808 149.522 137.809C151.592 132.383 151.592 118.818 149.522 109.751C148.165 103.54 144.31 92.6885 143.025 91.4034C142.668 91.0464 142.382 90.3325 142.382 89.8328C142.382 88.2621 132.316 71.3419 119.751 51.7088C113.111 41.3568 105.901 30.0053 103.83 26.5785C101.688 23.0802 99.8321 20.1531 99.5465 20.0103C99.3323 19.8675 98.2614 21.224 97.2619 23.0802ZM110.327 84.2641C124.034 106.039 126.676 112.393 126.319 123.173C125.748 140.093 111.826 152.944 96.3338 150.874C85.6249 149.446 76.9863 141.521 73.488 129.813C72.203 125.672 72.6313 115.177 74.202 110.68C76.201 104.897 81.4127 95.1872 86.7672 87.4054C88.2664 85.1208 89.5515 82.979 89.5515 82.622C89.5515 82.2651 89.9798 81.5512 90.551 81.1228C91.0507 80.6944 93.2639 77.4104 95.3343 73.9121C98.2614 69.0574 99.4037 67.7723 99.9749 68.4148C100.475 68.9146 105.044 75.9825 110.327 84.2641Z" fill="#EBFEFF"/>
<defs>
<linearGradient id="paint0_linear_304_9" x1="100" y1="200" x2="100" y2="-7.51112e-07" gradientUnits="userSpaceOnUse">
<stop offset="0.0001" stop-color="#0DB98E"/>
<stop offset="0.463542" stop-color="#50B9D3"/>
</linearGradient>
</defs>
</svg>
