<svg width="200" height="200" viewBox="0 0 200 200" fill="none" xmlns="http://www.w3.org/2000/svg">
<rect width="200" height="200" rx="16" fill="#192B34"/>
<rect width="200" height="200" rx="16" fill="url(#paint0_linear_11_270)"/>
<g filter="url(#filter0_dd_11_270)">
<path d="M128.571 62.8571H134.286C135.886 62.8571 137.143 64.1143 137.143 65.7143C137.143 67.3143 135.886 68.5714 134.286 68.5714H128.571C126.971 68.5714 125.714 67.3143 125.714 65.7143C125.714 64.1143 126.971 62.8571 128.571 62.8571Z" fill="#56B3B4"/>
<path d="M42.8571 154.286H71.4286C73.0286 154.286 74.2857 155.543 74.2857 157.143C74.2857 158.743 73.0286 160 71.4286 160H42.8571C41.2571 160 40 158.743 40 157.143C40 155.543 41.2571 154.286 42.8571 154.286Z" fill="#EA5E5E"/>
<path d="M111.429 108.571H128.571C130.171 108.571 131.429 109.829 131.429 111.429C131.429 113.029 130.171 114.286 128.571 114.286H111.429C109.829 114.286 108.571 113.029 108.571 111.429C108.571 109.829 109.829 108.571 111.429 108.571Z" fill="#BF85BF"/>
<path d="M77.1429 108.571H100C101.6 108.571 102.857 109.829 102.857 111.429C102.857 113.029 101.6 114.286 100 114.286H77.1429C75.5429 114.286 74.2857 113.029 74.2857 111.429C74.2857 109.829 75.5429 108.571 77.1429 108.571Z" fill="#EA5E5E"/>
<path d="M42.8571 108.571H65.7143C67.3143 108.571 68.5714 109.829 68.5714 111.429C68.5714 113.029 67.3143 114.286 65.7143 114.286H42.8571C41.2571 114.286 40 113.029 40 111.429C40 109.829 41.2571 108.571 42.8571 108.571Z" fill="#56B3B4"/>
<path d="M42.8571 131.429H71.4286C73.0286 131.429 74.2857 132.686 74.2857 134.286C74.2857 135.886 73.0286 137.143 71.4286 137.143H42.8571C41.2571 137.143 40 135.886 40 134.286C40 132.686 41.2571 131.429 42.8571 131.429Z" fill="#BF85BF"/>
<path d="M42.8571 85.7143H71.4286C73.0286 85.7143 74.2857 86.9714 74.2857 88.5714C74.2857 90.1714 73.0286 91.4286 71.4286 91.4286H42.8571C41.2571 91.4286 40 90.1714 40 88.5714C40 86.9714 41.2571 85.7143 42.8571 85.7143Z" fill="#BF85BF"/>
<path d="M71.4286 51.4286H128.571C130.171 51.4286 131.429 52.6857 131.429 54.2857C131.429 55.8857 130.171 57.1429 128.571 57.1429H71.4286C69.8286 57.1429 68.5714 55.8857 68.5714 54.2857C68.5714 52.6857 69.8286 51.4286 71.4286 51.4286Z" fill="#F7BA3E"/>
<path d="M42.8571 51.4286H60C61.6 51.4286 62.8571 52.6857 62.8571 54.2857C62.8571 55.8857 61.6 57.1429 60 57.1429H42.8571C41.2571 57.1429 40 55.8857 40 54.2857C40 52.6857 41.2571 51.4286 42.8571 51.4286Z" fill="#EA5E5E"/>
<path d="M65.7143 142.857H71.4286C73.0286 142.857 74.2857 144.114 74.2857 145.714C74.2857 147.314 73.0286 148.571 71.4286 148.571H65.7143C64.1143 148.571 62.8571 147.314 62.8571 145.714C62.8571 144.114 64.1143 142.857 65.7143 142.857Z" fill="#F7BA3E"/>
<path d="M65.7143 74.2857H71.4286C73.0286 74.2857 74.2857 75.5428 74.2857 77.1428C74.2857 78.7428 73.0286 80 71.4286 80H65.7143C64.1143 80 62.8571 78.7428 62.8571 77.1428C62.8571 75.5428 64.1143 74.2857 65.7143 74.2857Z" fill="#56B3B4"/>
<path d="M42.8571 142.857H54.2857C55.8857 142.857 57.1429 144.114 57.1429 145.714C57.1429 147.314 55.8857 148.571 54.2857 148.571H42.8571C41.2571 148.571 40 147.314 40 145.714C40 144.114 41.2571 142.857 42.8571 142.857Z" fill="#56B3B4"/>
<path d="M42.8571 74.2857H54.2857C55.8857 74.2857 57.1429 75.5428 57.1429 77.1428C57.1429 78.7428 55.8857 80 54.2857 80H42.8571C41.2571 80 40 78.7428 40 77.1428C40 75.5428 41.2571 74.2857 42.8571 74.2857Z" fill="#F7BA3E"/>
<path opacity="0.5" d="M117.143 142.857H122.857C124.457 142.857 125.714 144.114 125.714 145.714C125.714 147.314 124.457 148.571 122.857 148.571H117.143C115.543 148.571 114.286 147.314 114.286 145.714C114.286 144.114 115.543 142.857 117.143 142.857Z" fill="#4D616E"/>
<path opacity="0.5" d="M82.8571 142.857H105.714C107.314 142.857 108.571 144.114 108.571 145.714C108.571 147.314 107.314 148.571 105.714 148.571H82.8571C81.2571 148.571 80 147.314 80 145.714C80 144.114 81.2571 142.857 82.8571 142.857Z" fill="#4D616E"/>
<path opacity="0.5" d="M134.286 142.857H157.143C158.743 142.857 160 144.114 160 145.714C160 147.314 158.743 148.571 157.143 148.571H134.286C132.686 148.571 131.429 147.314 131.429 145.714C131.429 144.114 132.686 142.857 134.286 142.857Z" fill="#4D616E"/>
<path d="M88.5714 97.1429H134.286C135.886 97.1429 137.143 98.4 137.143 100C137.143 101.6 135.886 102.857 134.286 102.857H88.5714C86.9714 102.857 85.7143 101.6 85.7143 100C85.7143 98.4 86.9714 97.1429 88.5714 97.1429Z" fill="#56B3B4"/>
<path d="M60 97.1429H77.1429C78.7429 97.1429 80 98.4 80 100C80 101.6 78.7429 102.857 77.1429 102.857H60C58.4 102.857 57.1429 101.6 57.1429 100C57.1429 98.4 58.4 97.1429 60 97.1429Z" fill="#F7BA3E"/>
<path d="M42.8571 97.1429H48.5714C50.1714 97.1429 51.4286 98.4 51.4286 100C51.4286 101.6 50.1714 102.857 48.5714 102.857H42.8571C41.2571 102.857 40 101.6 40 100C40 98.4 41.2571 97.1429 42.8571 97.1429Z" fill="#EA5E5E"/>
<path d="M94.2857 62.8571H117.143C118.743 62.8571 120 64.1143 120 65.7143C120 67.3143 118.743 68.5714 117.143 68.5714H94.2857C92.6857 68.5714 91.4286 67.3143 91.4286 65.7143C91.4286 64.1143 92.6857 62.8571 94.2857 62.8571Z" fill="#BF85BF"/>
<path d="M42.8571 62.8571H82.8571C84.4571 62.8571 85.7143 64.1143 85.7143 65.7143C85.7143 67.3143 84.4571 68.5714 82.8571 68.5714H42.8571C41.2571 68.5714 40 67.3143 40 65.7143C40 64.1143 41.2571 62.8571 42.8571 62.8571Z" fill="#56B3B4"/>
<path d="M60 120H111.429C113.029 120 114.286 121.257 114.286 122.857C114.286 124.457 113.029 125.714 111.429 125.714H60C58.4 125.714 57.1429 124.457 57.1429 122.857C57.1429 121.257 58.4 120 60 120Z" fill="#F7BA3E"/>
<path d="M42.8571 120H48.5714C50.1714 120 51.4286 121.257 51.4286 122.857C51.4286 124.457 50.1714 125.714 48.5714 125.714H42.8571C41.2571 125.714 40 124.457 40 122.857C40 121.257 41.2571 120 42.8571 120Z" fill="#BF85BF"/>
<path d="M111.429 74.2857H140C141.6 74.2857 142.857 75.5428 142.857 77.1428C142.857 78.7428 141.6 80 140 80H111.429C109.829 80 108.571 78.7428 108.571 77.1428C108.571 75.5428 109.829 74.2857 111.429 74.2857Z" fill="#EA5E5E"/>
<path d="M111.429 85.7143H140C141.6 85.7143 142.857 86.9714 142.857 88.5714C142.857 90.1714 141.6 91.4286 140 91.4286H111.429C109.829 91.4286 108.571 90.1714 108.571 88.5714C108.571 86.9714 109.829 85.7143 111.429 85.7143Z" fill="#F7BA3E"/>
<path d="M42.8571 40H111.429C113.029 40 114.286 41.2571 114.286 42.8571C114.286 44.4571 113.029 45.7143 111.429 45.7143H42.8571C41.2571 45.7143 40 44.4571 40 42.8571C40 41.2571 41.2571 40 42.8571 40Z" fill="#56B3B4"/>
<path opacity="0.5" d="M122.857 40H157.143C158.743 40 160 41.2571 160 42.8571C160 44.4571 158.743 45.7143 157.143 45.7143H122.857C121.257 45.7143 120 44.4571 120 42.8571C120 41.2571 121.257 40 122.857 40Z" fill="#4D616E"/>
<path opacity="0.5" d="M122.857 120H134.286C135.886 120 137.143 121.257 137.143 122.857C137.143 124.457 135.886 125.714 134.286 125.714H122.857C121.257 125.714 120 124.457 120 122.857C120 121.257 121.257 120 122.857 120Z" fill="#4D616E"/>
<path opacity="0.5" d="M145.714 120H157.143C158.743 120 160 121.257 160 122.857C160 124.457 158.743 125.714 157.143 125.714H145.714C144.114 125.714 142.857 124.457 142.857 122.857C142.857 121.257 144.114 120 145.714 120Z" fill="#4D616E"/>
<path opacity="0.5" d="M140 108.571H157.143C158.743 108.571 160 109.829 160 111.429C160 113.029 158.743 114.286 157.143 114.286H140C138.4 114.286 137.143 113.029 137.143 111.429C137.143 109.829 138.4 108.571 140 108.571Z" fill="#4D616E"/>
<path opacity="0.5" d="M140 51.4286H157.143C158.743 51.4286 160 52.6857 160 54.2857C160 55.8857 158.743 57.1429 157.143 57.1429H140C138.4 57.1429 137.143 55.8857 137.143 54.2857C137.143 52.6857 138.4 51.4286 140 51.4286Z" fill="#4D616E"/>
<path opacity="0.5" d="M145.714 97.1429H157.143C158.743 97.1429 160 98.4 160 100C160 101.6 158.743 102.857 157.143 102.857H145.714C144.114 102.857 142.857 101.6 142.857 100C142.857 98.4 144.114 97.1429 145.714 97.1429Z" fill="#4D616E"/>
<path opacity="0.5" d="M145.714 62.8571H157.143C158.743 62.8571 160 64.1143 160 65.7143C160 67.3143 158.743 68.5714 157.143 68.5714H145.714C144.114 68.5714 142.857 67.3143 142.857 65.7143C142.857 64.1143 144.114 62.8571 145.714 62.8571Z" fill="#4D616E"/>
<path opacity="0.5" d="M151.429 74.2857H157.143C158.743 74.2857 160 75.5428 160 77.1428C160 78.7428 158.743 80 157.143 80H151.429C149.829 80 148.571 78.7428 148.571 77.1428C148.571 75.5428 149.829 74.2857 151.429 74.2857Z" fill="#4D616E"/>
<path opacity="0.5" d="M151.429 85.7143H157.143C158.743 85.7143 160 86.9714 160 88.5714C160 90.1714 158.743 91.4286 157.143 91.4286H151.429C149.829 91.4286 148.571 90.1714 148.571 88.5714C148.571 86.9714 149.829 85.7143 151.429 85.7143Z" fill="#4D616E"/>
<path opacity="0.5" d="M105.714 131.429H157.143C158.743 131.429 160 132.686 160 134.286C160 135.886 158.743 137.143 157.143 137.143H105.714C104.114 137.143 102.857 135.886 102.857 134.286C102.857 132.686 104.114 131.429 105.714 131.429Z" fill="#4D616E"/>
<path opacity="0.5" d="M82.8571 131.429H94.2857C95.8857 131.429 97.1429 132.686 97.1429 134.286C97.1429 135.886 95.8857 137.143 94.2857 137.143H82.8571C81.2571 137.143 80 135.886 80 134.286C80 132.686 81.2571 131.429 82.8571 131.429Z" fill="#4D616E"/>
<path opacity="0.5" d="M128.571 154.286H157.143C158.743 154.286 160 155.543 160 157.143C160 158.743 158.743 160 157.143 160H128.571C126.971 160 125.714 158.743 125.714 157.143C125.714 155.543 126.971 154.286 128.571 154.286Z" fill="#4D616E"/>
<path opacity="0.5" d="M82.8571 154.286H117.143C118.743 154.286 120 155.543 120 157.143C120 158.743 118.743 160 117.143 160H82.8571C81.2571 160 80 158.743 80 157.143C80 155.543 81.2571 154.286 82.8571 154.286Z" fill="#4D616E"/>
<path opacity="0.5" d="M82.8571 74.2857H100C101.6 74.2857 102.857 75.5428 102.857 77.1428C102.857 78.7428 101.6 80 100 80H82.8571C81.2571 80 80 78.7428 80 77.1428C80 75.5428 81.2571 74.2857 82.8571 74.2857Z" fill="#4D616E"/>
<path opacity="0.5" d="M82.8571 85.7143H100C101.6 85.7143 102.857 86.9714 102.857 88.5714C102.857 90.1714 101.6 91.4286 100 91.4286H82.8571C81.2571 91.4286 80 90.1714 80 88.5714C80 86.9714 81.2571 85.7143 82.8571 85.7143Z" fill="#4D616E"/>
</g>
<defs>
<filter id="filter0_dd_11_270" x="38" y="38" width="128" height="128" filterUnits="userSpaceOnUse" color-interpolation-filters="sRGB">
<feFlood flood-opacity="0" result="BackgroundImageFix"/>
<feColorMatrix in="SourceAlpha" type="matrix" values="0 0 0 0 0 0 0 0 0 0 0 0 0 0 0 0 0 0 127 0" result="hardAlpha"/>
<feOffset dx="2" dy="2"/>
<feGaussianBlur stdDeviation="2"/>
<feComposite in2="hardAlpha" operator="out"/>
<feColorMatrix type="matrix" values="0 0 0 0 0 0 0 0 0 0 0 0 0 0 0 0 0 0 0.25 0"/>
<feBlend mode="normal" in2="BackgroundImageFix" result="effect1_dropShadow_11_270"/>
<feColorMatrix in="SourceAlpha" type="matrix" values="0 0 0 0 0 0 0 0 0 0 0 0 0 0 0 0 0 0 127 0" result="hardAlpha"/>
<feOffset dx="2" dy="2"/>
<feGaussianBlur stdDeviation="0.5"/>
<feComposite in2="hardAlpha" operator="out"/>
<feColorMatrix type="matrix" values="0 0 0 0 0 0 0 0 0 0 0 0 0 0 0 0 0 0 0.1 0"/>
<feBlend mode="normal" in2="effect1_dropShadow_11_270" result="effect2_dropShadow_11_270"/>
<feBlend mode="normal" in="SourceGraphic" in2="effect2_dropShadow_11_270" result="shape"/>
</filter>
<linearGradient id="paint0_linear_11_270" x1="100" y1="200" x2="100" y2="-7.51112e-07" gradientUnits="userSpaceOnUse">
<stop stop-color="#0C1920" stop-opacity="0.51"/>
<stop offset="0.463542" stop-color="#192B34" stop-opacity="0"/>
</linearGradient>
</defs>
</svg>
