<svg width="200" height="200" viewBox="0 0 200 200" fill="none" xmlns="http://www.w3.org/2000/svg">
<rect width="200" height="200" rx="16" fill="url(#paint0_linear_301_12)"/>
<path d="M157.773 108.978C152.191 109.007 147.339 110.351 143.277 112.339C141.787 109.387 140.296 106.757 140.033 104.828C139.741 102.578 139.39 101.204 139.741 98.5154C140.092 95.8267 141.67 91.9983 141.641 91.7061C141.611 91.4138 141.29 90.0403 138.075 90.011C134.86 89.9818 132.084 90.6248 131.763 91.4723C131.441 92.3198 130.827 94.2486 130.418 96.2359C129.863 99.1583 123.989 109.592 120.628 115.057C119.547 112.923 118.612 111.053 118.407 109.562C118.115 107.312 117.764 105.938 118.115 103.25C118.465 100.561 120.044 96.7327 120.014 96.4405C119.985 96.1482 119.664 94.7746 116.449 94.7454C113.234 94.7162 110.458 95.3591 110.136 96.2067C109.815 97.0542 109.464 99.0414 108.792 100.97C108.12 102.899 100.317 120.317 98.2712 124.818C97.2191 127.126 96.3131 128.967 95.6702 130.224C95.6702 130.224 95.641 130.312 95.5533 130.458C94.998 131.539 94.6766 132.124 94.6766 132.124C94.6766 132.124 94.6766 132.124 94.6766 132.153C94.2382 132.942 93.7706 133.673 93.5368 133.673C93.3615 133.673 93.04 131.568 93.5953 128.704C94.7642 122.655 97.5406 113.245 97.5114 112.923C97.5114 112.748 98.0374 111.111 95.6994 110.264C93.4199 109.416 92.6016 110.819 92.397 110.819C92.1925 110.819 92.0463 111.316 92.0463 111.316C92.0463 111.316 94.5889 100.736 87.1951 100.736C82.5776 100.736 76.2066 105.792 73.0503 110.351C71.0631 111.433 66.8255 113.741 62.2957 116.226C60.5714 117.19 58.7887 118.154 57.1229 119.06C57.006 118.943 56.8891 118.797 56.7722 118.68C47.8295 109.124 31.2884 102.373 31.9898 89.5434C32.2528 84.8675 33.8601 72.5932 63.7569 57.6886C88.364 45.5604 107.945 48.9212 111.335 56.3735C116.186 67.0113 100.843 86.7671 75.4175 89.6311C65.715 90.7124 60.6299 86.9717 59.344 85.5689C57.9997 84.1077 57.7951 84.02 57.2983 84.3122C56.48 84.7506 57.006 86.0657 57.2983 86.8256C58.0581 88.8128 61.1852 92.3198 66.4748 94.044C71.1507 95.5637 82.5191 96.4112 96.2839 91.0923C111.685 85.1305 123.726 68.5602 120.19 54.6785C116.653 40.5922 93.2738 35.9455 71.1507 43.8069C57.9997 48.4828 43.7381 55.8475 33.4802 65.4331C21.2935 76.8307 19.3647 86.7379 20.1538 90.8878C22.9886 105.617 43.2997 115.203 51.4241 122.304C51.015 122.538 50.6351 122.743 50.3136 122.918C46.2514 124.934 30.7623 133.03 26.9047 141.592C22.521 151.295 27.6061 158.251 30.9669 159.186C41.4001 162.079 52.1255 156.877 57.8828 148.285C63.64 139.693 62.9386 128.529 60.2792 123.415C60.25 123.356 60.2207 123.298 60.1623 123.239C61.2144 122.626 62.2957 121.983 63.3478 121.369C65.4227 120.142 67.4684 119.002 69.2219 118.067C68.2283 120.785 67.4977 124.028 67.147 128.704C66.7086 134.199 68.9589 141.329 71.9106 144.135C73.2257 145.362 74.7746 145.392 75.7682 145.392C79.2167 145.392 80.7656 142.528 82.4899 139.138C84.5941 134.988 86.4937 130.166 86.4937 130.166C86.4937 130.166 84.1265 143.2 90.5559 143.2C92.8939 143.2 95.2611 140.16 96.3131 138.612C96.3131 138.641 96.3131 138.641 96.3131 138.641C96.3131 138.641 96.3716 138.553 96.4885 138.349C96.7223 137.969 96.8684 137.735 96.8684 137.735C96.8684 137.735 96.8684 137.706 96.8684 137.676C97.8036 136.04 99.9078 132.328 103.035 126.162C107.068 118.213 110.955 108.276 110.955 108.276C110.955 108.276 111.305 110.702 112.504 114.735C113.205 117.102 114.666 119.703 115.835 122.217C114.9 123.532 114.316 124.262 114.316 124.262C114.316 124.262 114.316 124.262 114.345 124.292C113.585 125.285 112.767 126.366 111.861 127.419C108.675 131.218 104.876 135.572 104.35 136.829C103.736 138.319 103.882 139.401 105.051 140.277C105.899 140.92 107.418 141.008 108.967 140.92C111.831 140.716 113.848 140.014 114.842 139.576C116.39 139.021 118.202 138.173 119.897 136.917C123.024 134.608 124.924 131.305 124.749 126.951C124.661 124.555 123.872 122.158 122.908 119.908C123.2 119.499 123.463 119.09 123.755 118.68C128.694 111.462 132.522 103.542 132.522 103.542C132.522 103.542 132.873 105.968 134.071 110.001C134.656 112.046 135.854 114.267 136.906 116.43C132.259 120.2 129.395 124.584 128.373 127.448C126.531 132.767 127.963 135.163 130.681 135.718C131.909 135.981 133.662 135.397 134.948 134.842C136.585 134.316 138.513 133.41 140.355 132.065C143.482 129.757 146.492 126.542 146.316 122.187C146.229 120.2 145.703 118.242 144.972 116.342C148.917 114.706 154.003 113.8 160.49 114.56C174.401 116.196 177.148 124.876 176.622 128.529C176.096 132.182 173.174 134.169 172.209 134.783C171.245 135.397 170.924 135.601 171.011 136.04C171.128 136.683 171.596 136.654 172.414 136.537C173.554 136.332 179.72 133.585 179.983 126.863C180.422 118.271 172.239 108.89 157.773 108.978ZM50.4597 145.158C45.8422 150.185 39.4128 152.084 36.6365 150.477C33.6556 148.753 34.8245 141.329 40.4941 136.011C43.9426 132.767 48.3848 129.757 51.3365 127.915C52.0086 127.506 53.0023 126.922 54.2005 126.191C54.405 126.074 54.5219 126.016 54.5219 126.016C54.7557 125.87 54.9895 125.724 55.2233 125.577C57.2983 133.176 55.311 139.868 50.4597 145.158ZM84.068 122.304C82.4607 126.22 79.0998 136.244 77.0541 135.689C75.3006 135.222 74.2193 127.623 76.7034 120.112C77.9601 116.342 80.6195 111.842 82.1684 110.088C84.6817 107.283 87.4581 106.348 88.1302 107.487C88.9778 108.978 85.0617 119.849 84.068 122.304ZM111.802 135.572C111.13 135.923 110.487 136.157 110.195 135.981C109.99 135.864 110.487 135.397 110.487 135.397C110.487 135.397 113.965 131.656 115.338 129.961C116.127 128.967 117.063 127.798 118.056 126.483C118.056 126.6 118.056 126.746 118.056 126.863C118.056 131.335 113.731 134.345 111.802 135.572ZM133.195 130.692C132.698 130.341 132.785 129.172 134.451 125.519C135.094 124.087 136.614 121.691 139.215 119.382C139.507 120.317 139.712 121.223 139.682 122.07C139.653 127.711 135.62 129.815 133.195 130.692Z" fill="#F9E2ED"/>
<defs>
<linearGradient id="paint0_linear_301_12" x1="100" y1="200" x2="100" y2="-7.51112e-07" gradientUnits="userSpaceOnUse">
<stop offset="0.0001" stop-color="#9B2860"/>
<stop offset="0.463542" stop-color="#CD6799"/>
</linearGradient>
</defs>
</svg>
