<svg width="200" height="200" viewBox="0 0 200 200" fill="none" xmlns="http://www.w3.org/2000/svg">
<g clip-path="url(#clip0_3_88)">
<rect width="200" height="200" rx="16" fill="#F97B8E"/>
<rect width="200" height="200" rx="16" fill="url(#paint0_linear_3_88)"/>
<g filter="url(#filter0_dd_3_88)">
<path d="M123.255 86.445H107.685C107.359 86.445 107.046 86.3154 106.815 86.0847C106.585 85.8541 106.455 85.5412 106.455 85.215V81.315C106.568 79.7368 106.241 78.1583 105.51 76.755C105.315 76.425 105.075 76.11 104.805 75.795C104.246 75.1078 103.535 74.5602 102.728 74.1957C101.921 73.8311 101.04 73.6597 100.155 73.695C99.135 73.74 97.98 74.145 97.095 74.685C96.12 75.3 95.445 75.93 94.905 76.785C94.305 77.73 94.155 78.885 94.155 79.995C94.155 80.94 94.335 81.885 94.785 82.74C97.02 87.045 100.125 89.925 107.355 93.615C110.415 95.175 113.49 96.72 116.265 98.73C120.285 101.655 123.06 104.43 125.235 108.705C126.945 112.095 127.38 115.95 127.38 119.745C127.38 123.42 126.96 127.14 125.43 130.485C122.52 136.755 118.56 139.86 111.135 141.75C107.655 142.65 104.04 142.83 100.44 142.83C95.85 142.83 91.215 142.53 86.85 141.075C80.55 138.96 77.04 136.035 74.64 131.325C72.3 126.735 72 121.425 72 116.28C72 114.33 73.56 112.755 75.51 112.755H89.565C91.425 112.755 92.925 114.255 92.925 116.115C92.925 119.295 92.745 123.09 95.325 124.935C95.85 125.31 96.465 125.61 97.23 125.925C99.3 126.735 100.5 126.84 102.78 125.925C104.175 125.145 104.895 124.485 105.39 123.42C105.765 122.61 105.84 121.71 105.84 120.825C105.87 119.638 105.618 118.461 105.105 117.39C103.05 113.355 99.675 110.73 92.925 106.5C84.765 102.18 80.1 98.805 76.47 93.195C73.9137 89.3404 72.5901 84.7995 72.675 80.175C72.8046 76.4011 73.7244 72.6963 75.375 69.3C79.245 61.26 84.42 58.29 95.385 57C101.535 57 107.835 57.105 113.475 59.505C118.035 61.455 121.095 64.305 123.54 69.18C125.655 73.395 126.3 78.18 126.57 82.905C126.597 83.3604 126.53 83.8164 126.374 84.245C126.217 84.6737 125.975 85.0658 125.662 85.3974C125.349 85.7289 124.971 85.9929 124.552 86.1731C124.133 86.3532 123.681 86.4458 123.225 86.445H123.255Z" fill="white"/>
</g>
<g filter="url(#filter1_dd_3_88)">
<path d="M148 29.805V0H173.77V29.805L160.885 20.265L148 29.805Z" fill="white"/>
</g>
</g>
<defs>
<filter id="filter0_dd_3_88" x="70" y="55" width="63.38" height="93.83" filterUnits="userSpaceOnUse" color-interpolation-filters="sRGB">
<feFlood flood-opacity="0" result="BackgroundImageFix"/>
<feColorMatrix in="SourceAlpha" type="matrix" values="0 0 0 0 0 0 0 0 0 0 0 0 0 0 0 0 0 0 127 0" result="hardAlpha"/>
<feOffset dx="2" dy="2"/>
<feGaussianBlur stdDeviation="2"/>
<feComposite in2="hardAlpha" operator="out"/>
<feColorMatrix type="matrix" values="0 0 0 0 0 0 0 0 0 0 0 0 0 0 0 0 0 0 0.25 0"/>
<feBlend mode="normal" in2="BackgroundImageFix" result="effect1_dropShadow_3_88"/>
<feColorMatrix in="SourceAlpha" type="matrix" values="0 0 0 0 0 0 0 0 0 0 0 0 0 0 0 0 0 0 127 0" result="hardAlpha"/>
<feOffset dx="2" dy="2"/>
<feGaussianBlur stdDeviation="0.5"/>
<feComposite in2="hardAlpha" operator="out"/>
<feColorMatrix type="matrix" values="0 0 0 0 0 0 0 0 0 0 0 0 0 0 0 0 0 0 0.1 0"/>
<feBlend mode="normal" in2="effect1_dropShadow_3_88" result="effect2_dropShadow_3_88"/>
<feBlend mode="normal" in="SourceGraphic" in2="effect2_dropShadow_3_88" result="shape"/>
</filter>
<filter id="filter1_dd_3_88" x="146" y="-2" width="33.77" height="37.805" filterUnits="userSpaceOnUse" color-interpolation-filters="sRGB">
<feFlood flood-opacity="0" result="BackgroundImageFix"/>
<feColorMatrix in="SourceAlpha" type="matrix" values="0 0 0 0 0 0 0 0 0 0 0 0 0 0 0 0 0 0 127 0" result="hardAlpha"/>
<feOffset dx="2" dy="2"/>
<feGaussianBlur stdDeviation="2"/>
<feComposite in2="hardAlpha" operator="out"/>
<feColorMatrix type="matrix" values="0 0 0 0 0 0 0 0 0 0 0 0 0 0 0 0 0 0 0.25 0"/>
<feBlend mode="normal" in2="BackgroundImageFix" result="effect1_dropShadow_3_88"/>
<feColorMatrix in="SourceAlpha" type="matrix" values="0 0 0 0 0 0 0 0 0 0 0 0 0 0 0 0 0 0 127 0" result="hardAlpha"/>
<feOffset dx="2" dy="2"/>
<feGaussianBlur stdDeviation="0.5"/>
<feComposite in2="hardAlpha" operator="out"/>
<feColorMatrix type="matrix" values="0 0 0 0 0 0 0 0 0 0 0 0 0 0 0 0 0 0 0.1 0"/>
<feBlend mode="normal" in2="effect1_dropShadow_3_88" result="effect2_dropShadow_3_88"/>
<feBlend mode="normal" in="SourceGraphic" in2="effect2_dropShadow_3_88" result="shape"/>
</filter>
<linearGradient id="paint0_linear_3_88" x1="100" y1="200" x2="100" y2="-7.51112e-07" gradientUnits="userSpaceOnUse">
<stop stop-color="#D5344C"/>
<stop offset="0.463542" stop-color="#F97B8E" stop-opacity="0"/>
</linearGradient>
<clipPath id="clip0_3_88">
<rect width="200" height="200" rx="16" fill="white"/>
</clipPath>
</defs>
</svg>
