<svg width="200" height="200" viewBox="0 0 200 200" fill="none" xmlns="http://www.w3.org/2000/svg">
<rect width="200" height="200" rx="16" fill="url(#paint0_linear_302_21)"/>
<path d="M100 52C78.6667 52 65.3333 62.6667 60 84C68 73.3333 77.3333 69.3333 88 72C94.0859 73.5215 98.4359 77.9366 103.251 82.824C111.094 90.7855 120.172 100 140 100C161.333 100 174.667 89.3333 180 68C172 78.6667 162.667 82.6667 152 80C145.914 78.4785 141.564 74.0634 136.749 69.176C128.906 61.2145 119.828 52 100 52ZM60 100C38.6667 100 25.3333 110.667 20 132C28 121.333 37.3333 117.333 48 120C54.0859 121.521 58.4359 125.937 63.2507 130.824C71.0942 138.785 80.1721 148 100 148C121.333 148 134.667 137.333 140 116C132 126.667 122.667 130.667 112 128C105.914 126.479 101.564 122.063 96.7493 117.176C88.9058 109.215 79.8279 100 60 100Z" fill="#EFFCFE"/>
<defs>
<linearGradient id="paint0_linear_302_21" x1="100" y1="200" x2="100" y2="-7.51112e-07" gradientUnits="userSpaceOnUse">
<stop offset="0.0001" stop-color="#2298BD"/>
<stop offset="0.463542" stop-color="#0ED7B5"/>
</linearGradient>
</defs>
</svg>
